<svg xmlns="http://www.w3.org/2000/svg" viewBox="0 0 1000 1000"><path fill="#8b8987" d="M152.9 479.9h326.7v196.8c0 11.3 9.1 20.4 20.4 20.4 11.3 0 20.4-9.1 20.4-20.4V479.9h326.7V697c0 11.3 9.1 20.4 20.4 20.4 11.3 0 20.4-9.1 20.4-20.4V472.7c0-18.6-15-33.6-33.6-33.6H520.4v-89.2c0-11.3-9.1-20.4-20.4-20.4-11.3 0-20.4 9.1-20.4 20.4v89.2H145.7c-18.6 0-33.6 15-33.6 33.6V697c0 11.3 9.1 20.4 20.4 20.4 11.3 0 20.4-9.1 20.4-20.4V479.9zm81.7 270.5H30.4c-11.3 0-20.4 9.1-20.4 20.4v197.9c0 11.3 9.1 20.4 20.4 20.4h204.2c11.3 0 20.4-9.2 20.4-20.4V770.8c0-11.3-9.2-20.4-20.4-20.4zm367.5 0H397.9c-11.3 0-20.4 9.1-20.4 20.4v197.9c0 11.3 9.1 20.4 20.4 20.4h204.2c11.3 0 20.4-9.2 20.4-20.4V770.8c0-11.3-9.2-20.4-20.4-20.4zm367.5 0H765.4c-11.3 0-20.4 9.1-20.4 20.4v197.9c0 11.3 9.1 20.4 20.4 20.4h204.2c11.3 0 20.4-9.2 20.4-20.4V770.8c0-11.3-9.2-20.4-20.4-20.4zM336.7 296.1h326.7c11.3 0 20.4-9.1 20.4-20.4V31.3c0-11.3-9.2-20.4-20.4-20.4H336.7c-11.3 0-20.4 9.1-20.4 20.4v244.4c-.1 11.3 9.1 20.4 20.4 20.4z"/></svg>